<svg width="8" height="15" viewBox="0 0 8 15" version="1.1" xmlns="http://www.w3.org/2000/svg" xmlns:xlink="http://www.w3.org/1999/xlink">
<title>Chevron</title>
<desc>Created using Figma</desc>
<g id="Canvas" transform="translate(-3641 -307)">
<g id="Chevron">
<use xlink:href="#path0_stroke" transform="translate(3642 308.472)" fill="#FFFFFF"/>
</g>
</g>
<defs>
<path id="path0_stroke" d="M 0.662081 -0.527459C 0.370774 -0.821929 -0.104093 -0.824493 -0.398564 -0.533186C -0.693034 -0.241878 -0.695598 0.232988 -0.404291 0.527459L 0.662081 -0.527459ZM 6 5.93485L 6.53319 6.46231C 6.82227 6.17009 6.82227 5.69962 6.53319 5.40739L 6 5.93485ZM -0.533186 11.4725C -0.824493 11.767 -0.821929 12.2419 -0.527459 12.5332C -0.232988 12.8245 0.241878 12.8219 0.533186 12.5275L -0.533186 11.4725ZM -0.404291 0.527459L 5.46681 6.46231L 6.53319 5.40739L 0.662081 -0.527459L -0.404291 0.527459ZM 5.46681 5.40739L -0.533186 11.4725L 0.533186 12.5275L 6.53319 6.46231L 5.46681 5.40739Z"/>
</defs>
</svg>
