<svg width="446" height="205" viewBox="0 0 446 205" version="1.1" xmlns="http://www.w3.org/2000/svg" xmlns:xlink="http://www.w3.org/1999/xlink">
<g data-name="Canvas" transform="translate(1600 1174)" fill="none">
<g data-name="empty-state-illustration">
<g data-name="Group 2">
<g data-name="Vector">
<g stroke-width="2" transform="translate(-1316.5 -1019)">
<use xlink:href="#path0" stroke="#2E3D98"/>
</g>
</g>
<g data-name="Group 3">
<g data-name="Ellipse">
<g stroke-width="2.5" transform="translate(-1392 -1122)">
<circle cx="11.5" cy="11.5" r="10.25" stroke="#4F3690"/>
</g>
</g>
<g data-name="Line">
<g stroke-width="2.5" stroke-linecap="round" transform="matrix(0.707107 0.707107 -0.707107 0.707107 -1375 -1102)">
<line x1="1.25" y1="-1.25" x2="17.1348" y2="-1.25" stroke="#4F3690"/>
</g>
</g>
</g>
<g data-name="Ellipse">
<g transform="translate(-1296 -1116)">
<circle cx="58.5" cy="58.5" r="58.5" fill="#E1E8F6"/>
</g>
</g>
<g data-name="Ellipse">
<g transform="translate(-1452 -1037)">
<circle cx="24.5" cy="24.5" r="24.5" fill="#ABB1D6" fill-opacity="0.3"/>
</g>
</g>
<g data-name="Ellipse">
<g stroke-width="2" transform="translate(-1582 -1077)">
<circle cx="13.5" cy="13.5" r="12.5" stroke="#00B8BA"/>
</g>
</g>
<g data-name="Group 2">
<g data-name="Group">
<g data-name="Vector">
<g stroke-width="2.5" stroke-miterlimit="10" stroke-linecap="round" stroke-linejoin="round" transform="translate(-1192 -1067.12)">
<use xlink:href="#path8" stroke="#09BCEF"/>
</g>
</g>
<g data-name="Vector">
<g stroke-width="2.5" stroke-miterlimit="10" stroke-linecap="round" stroke-linejoin="round" transform="translate(-1161.04 -1072)">
<use xlink:href="#path9" stroke="#09BCEF"/>
</g>
</g>
</g>
</g>
<g data-name="Group 2.1">
<g data-name="Group">
<g data-name="Vector">
<g stroke-width="2.5" stroke-miterlimit="10" stroke-linecap="round" stroke-linejoin="round" transform="translate(-1474 -1111)">
<use xlink:href="#path10" stroke="#09BCEF"/>
</g>
</g>
<g data-name="Vector">
<g stroke-width="2.5" stroke-miterlimit="10" stroke-linecap="round" stroke-linejoin="round" transform="translate(-1424.04 -1116)">
<use xlink:href="#path11" stroke="#09BCEF"/>
</g>
</g>
</g>
</g>
<g data-name="Group 2.2">
<g data-name="Group">
<g data-name="Vector">
<g stroke-width="2.5" stroke-miterlimit="10" stroke-linecap="round" stroke-linejoin="round" transform="translate(-1598 -1019)">
<use xlink:href="#path12" stroke="#09BCEF"/>
</g>
</g>
<g data-name="Vector">
<g stroke-width="2.5" stroke-miterlimit="10" stroke-linecap="round" stroke-linejoin="round" transform="translate(-1584.04 -1024)">
<use xlink:href="#path13" stroke="#09BCEF"/>
</g>
</g>
</g>
</g>
<g data-name="Vector">
<g stroke-width="2.5" stroke-dasharray="8 8" transform="translate(-1569 -1074.19)">
<use xlink:href="#path14" stroke="#111B58"/>
</g>
</g>
<g data-name="Vector">
<g stroke-width="2" stroke-miterlimit="10" stroke-linecap="round" stroke-linejoin="round" transform="translate(-1353 -1027.27)">
<use xlink:href="#path15" stroke="#2E3D98"/>
</g>
</g>
<g data-name="Vector">
<g transform="matrix(0.943807 0.330498 -0.330498 0.943807 -1320.77 -1064.34)">
<use xlink:href="#path16" fill="#00B8BA"/>
</g>
</g>
<g data-name="Vector">
<g stroke-width="2" stroke-miterlimit="10" stroke-linecap="round" stroke-linejoin="round" transform="matrix(0.943807 0.330498 -0.330498 0.943807 -1304.42 -1111.04)">
<use xlink:href="#path17" stroke="#2E3D98"/>
</g>
</g>
<g data-name="Group">
<g data-name="Vector">
<g transform="matrix(0.943807 0.330498 -0.330498 0.943807 -1311.89 -1073.91)">
<use xlink:href="#path18" fill="#2E3D98"/>
</g>
</g>
<g data-name="Vector">
<g transform="matrix(0.943807 0.330498 -0.330498 0.943807 -1286.32 -1064.96)">
<use xlink:href="#path19" fill="#2E3D98"/>
</g>
</g>
</g>
<g data-name="Vector">
<g stroke-width="2" stroke-miterlimit="10" stroke-linecap="round" stroke-linejoin="round" transform="matrix(0.943807 0.330498 -0.330498 0.943807 -1309.31 -1079.04)">
<use xlink:href="#path20" stroke="#2E3D98"/>
</g>
</g>
<g data-name="Vector">
<g stroke-width="2" stroke-miterlimit="10" stroke-linecap="round" stroke-linejoin="round" transform="matrix(0.943807 0.330498 -0.330498 0.943807 -1309.46 -1044.18)">
<use xlink:href="#path21" stroke="#2E3D98"/>
</g>
</g>
<g data-name="Vector">
<g stroke-width="2.5" stroke-miterlimit="10" stroke-linecap="round" stroke-linejoin="round" transform="matrix(0.943807 0.330498 -0.330498 0.943807 -1269.01 -1058.7)">
<use xlink:href="#path22" stroke="#2E3D98"/>
</g>
</g>
<g data-name="Vector">
<g stroke-width="2" stroke-miterlimit="10" stroke-linecap="round" stroke-linejoin="round" transform="matrix(0.943807 0.330498 -0.330498 0.943807 -1285.45 -1070.69)">
<use xlink:href="#path23" stroke="#2E3D98"/>
</g>
</g>
<g data-name="Group">
<g data-name="Group">
<g data-name="Vector">
<g stroke-width="2" stroke-miterlimit="10" stroke-linecap="round" stroke-linejoin="round" transform="matrix(0 1 -1 0 -1418.68 -1035)">
<use xlink:href="#path24" stroke="#00B8BA"/>
</g>
</g>
<g data-name="Group" clip-path="url(#clip0)">
</g>
</g>
</g>
<g data-name="Group">
<g data-name="Group">
<g data-name="Vector">
<g stroke-width="2" stroke-miterlimit="10" transform="translate(-1529.48 -1121.17)">
<use xlink:href="#path25" stroke="#2E3D98"/>
</g>
</g>
<g data-name="Vector">
<g stroke-width="2" stroke-miterlimit="10" transform="translate(-1535.17 -1127)">
<use xlink:href="#path26" stroke="#2E3D98"/>
</g>
</g>
<g data-name="Vector">
<g stroke-width="2" stroke-miterlimit="10" transform="translate(-1535.17 -1127)">
<use xlink:href="#path27" stroke="#2E3D98"/>
</g>
</g>
<g data-name="Vector">
<g transform="translate(-1522.9 -1094.87)">
<use xlink:href="#path28" fill="#2E3D98"/>
</g>
</g>
<g data-name="Vector">
<g transform="matrix(0.69853 -0.715567 0.69853 0.715567 -1509.93 -1099.15)">
<use xlink:href="#path29" fill="#2E3D98"/>
</g>
</g>
<g data-name="Vector">
<g transform="translate(-1503.8 -1114.43)">
<use xlink:href="#path30" fill="#2E3D98"/>
</g>
</g>
<g data-name="Vector">
<g transform="matrix(0.69853 -0.715567 0.69853 0.715567 -1509.95 -1126.84)">
<use xlink:href="#path31" fill="#2E3D98"/>
</g>
</g>
<g data-name="Vector">
<g transform="translate(-1522.9 -1134)">
<use xlink:href="#path32" fill="#2E3D98"/>
</g>
</g>
<g data-name="Vector">
<g transform="matrix(0.69853 -0.715567 0.69853 0.715567 -1536.98 -1126.82)">
<use xlink:href="#path33" fill="#2E3D98"/>
</g>
</g>
<g data-name="Vector">
<g transform="translate(-1542 -1114.43)">
<use xlink:href="#path34" fill="#2E3D98"/>
</g>
</g>
<g data-name="Vector">
<g transform="matrix(0.69853 -0.715567 0.69853 0.715567 -1536.96 -1099.13)">
<use xlink:href="#path35" fill="#2E3D98"/>
</g>
</g>
</g>
</g>
<g data-name="Group">
<g data-name="Group">
<g data-name="Vector">
<g stroke-width="2" stroke-miterlimit="10" stroke-linecap="round" stroke-linejoin="bevel" transform="translate(-1327.54 -1153.55)">
<use xlink:href="#path36" stroke="#E1E8F6"/>
</g>
</g>
<g data-name="Vector">
<g stroke-width="2" stroke-miterlimit="10" stroke-linecap="round" stroke-linejoin="bevel" transform="translate(-1320.57 -1173)">
<use xlink:href="#path37" stroke="#E1E8F6"/>
</g>
</g>
<g data-name="Vector">
<g stroke-width="2" stroke-miterlimit="10" stroke-linecap="round" stroke-linejoin="bevel" transform="translate(-1310.3 -1169.98)">
<use xlink:href="#path38" stroke="#E1E8F6"/>
</g>
</g>
<g data-name="Vector">
<g stroke-width="2" stroke-miterlimit="10" stroke-linecap="round" stroke-linejoin="bevel" transform="translate(-1302.45 -1161.56)">
<use xlink:href="#path39" stroke="#E1E8F6"/>
</g>
</g>
<g data-name="Vector">
<g stroke-width="2" stroke-miterlimit="10" stroke-linecap="round" stroke-linejoin="bevel" transform="translate(-1298.74 -1149.7)">
<use xlink:href="#path40" stroke="#E1E8F6"/>
</g>
</g>
<g data-name="Vector">
<g stroke-width="2" stroke-miterlimit="10" stroke-linecap="round" stroke-linejoin="bevel" transform="translate(-1300.08 -1138.85)">
<use xlink:href="#path41" stroke="#E1E8F6"/>
</g>
</g>
<g data-name="Vector">
<g stroke-width="2" stroke-miterlimit="10" stroke-linecap="round" stroke-linejoin="bevel" transform="translate(-1306.12 -1130.34)">
<use xlink:href="#path42" stroke="#E1E8F6"/>
</g>
</g>
<g data-name="Vector">
<g stroke-width="2" stroke-miterlimit="10" stroke-linecap="round" stroke-linejoin="bevel" transform="translate(-1315.55 -1125.58)">
<use xlink:href="#path43" stroke="#E1E8F6"/>
</g>
</g>
<g data-name="Vector">
<g stroke-width="2" stroke-miterlimit="10" stroke-linecap="round" stroke-linejoin="bevel" transform="translate(-1327.3 -1125.71)">
<use xlink:href="#path44" stroke="#E1E8F6"/>
</g>
</g>
<g data-name="Vector">
<g stroke-width="2" stroke-miterlimit="10" stroke-linecap="round" stroke-linejoin="bevel" transform="translate(-1338.59 -1130.66)">
<use xlink:href="#path45" stroke="#E1E8F6"/>
</g>
</g>
<g data-name="Vector">
<g stroke-width="2" stroke-miterlimit="10" stroke-linecap="round" stroke-linejoin="bevel" transform="translate(-1345.7 -1139.31)">
<use xlink:href="#path46" stroke="#E1E8F6"/>
</g>
</g>
<g data-name="Vector">
<g stroke-width="2" stroke-miterlimit="10" stroke-linecap="round" stroke-linejoin="bevel" transform="translate(-1347 -1150.3)">
<use xlink:href="#path47" stroke="#E1E8F6"/>
</g>
</g>
<g data-name="Vector">
<g stroke-width="2" stroke-miterlimit="10" stroke-linecap="round" stroke-linejoin="bevel" transform="translate(-1342.22 -1162.06)">
<use xlink:href="#path48" stroke="#E1E8F6"/>
</g>
</g>
<g data-name="Vector">
<g stroke-width="2" stroke-miterlimit="10" stroke-linecap="round" stroke-linejoin="bevel" transform="translate(-1332.46 -1170.25)">
<use xlink:href="#path49" stroke="#E1E8F6"/>
</g>
</g>
</g>
</g>
</g>
</g>
</g>
<defs>

<path id="path0" d="M 0 0L 9.99691 15.6473C 10.7345 16.8018 12.3882 16.8897 13.244 15.8199L 25.5 0.5"/>
<path id="path8" d="M 9.15532e-07 -3.8147e-07L 34.8002 -3.8147e-07"/>
<path id="path9" d="M 0 -1.77428e-06L 5.04003 4.88372L 0 10"/>
<path id="path10" d="M 1.42065e-06 -3.8147e-07L 54 -3.8147e-07"/>
<path id="path11" d="M 0 -1.77428e-06L 5.04003 4.88372L 0 10"/>
<path id="path12" d="M 4.73549e-07 -3.8147e-07L 18 -3.8147e-07"/>
<path id="path13" d="M 0 -1.77428e-06L 5.04003 4.88372L 0 10"/>
<path id="path14" d="M 224.5 33.1908C 135.5 -48.3092 100.5 51.1908 0 10.1908"/>
<path id="path15" d="M 0 23.3624C 0 21.9382 0.136897 20.535 0.400162 19.1841C 2.49575 8.27264 12.6578 0 24.8732 0L 79.1268 0C 92.8587 0 101.5 8.76849 104 23.3519L 105.5 38.2685"/>
<path id="path16" d="M 20.3977 11.8958L 14.0267 11.8958C 6.28676 11.8958 -6.42736e-07 7.26736 -6.42736e-07 0L -6.42736e-07 25.1844C -6.42736e-07 33.3733 7.06602 41.981 15.7853 41.981C 38.6367 41.981 57.16 30.326 57.16 8.86953L 57.16 1.31943L 50.6521 1.665C 45.292 8.04226 35.9619 11.8958 20.3977 11.8958Z"/>
<path id="path17" d="M 57.16 38.1589L 57.16 23.5508C 57.16 8.72292 44.3653 0 28.58 0C 12.7947 0 -6.42736e-07 8.7334 -6.42736e-07 23.5508L -6.42736e-07 74.6527C -6.42736e-07 82.8416 7.06602 91.4493 15.7853 91.4493C 38.6367 91.4493 57.16 79.7943 57.16 58.3378L 57.16 50.7877"/>
<path id="path18" d="M 2.53787 1.27828e-06L 2.40097 1.27828e-06C 1.07412 1.27828e-06 0 1.07858 0 2.38755C 0 3.70698 1.08465 4.77509 2.40097 4.77509L 2.53787 4.77509C 3.86472 4.77509 4.93884 3.69651 4.93884 2.38755C 4.94937 1.06811 3.86472 1.27828e-06 2.53787 1.27828e-06Z"/>
<path id="path19" d="M 2.53787 1.27828e-06L 2.40097 1.27828e-06C 1.07412 1.27828e-06 1.28547e-06 1.07858 1.28547e-06 2.38755C 1.28547e-06 3.70698 1.08465 4.77509 2.40097 4.77509L 2.53787 4.77509C 3.86472 4.77509 4.93884 3.69651 4.93884 2.38755C 4.93884 1.06811 3.86472 1.27828e-06 2.53787 1.27828e-06Z"/>
<path id="path20" d="M 0 0L 8.84569 0L 8.84569 17.1841C 8.84569 17.1841 8.38234 23.6242 17.0701 23.6242"/>
<path id="path21" d="M 0 0.345565C 0 0.345565 4.49656 2.73311 11.2572 0"/>
<path id="path22" d="M 1.28473 0.0736162C 1.28473 0.0736162 10.6254 -1.19346 10.6254 6.78597C 10.6254 14.7654 0 13.4983 0 13.4983"/>
<path id="path23" d="M 0 -1.2207e-05L 8.84569 -1.2207e-05"/>
<path id="path24" d="M 22.4457 20.6834L 23.1364 19.6317L 18.3019 14.7237C 24.1723 8.76413 29.6974 4.20678 35.9132 0C 30.3881 0.701131 20.7191 6.66074 15.194 11.5687L 13.8128 10.517L 12.7768 11.2181L 12.0862 10.1664C 11.7408 9.81583 8.28766 13.3215 8.63298 13.672L 9.66893 14.7237L 8.63298 15.7754L 9.66893 16.8271C 5.52511 22.4362 1.38128 28.7464 0 32.9531L 0.690638 35.4071C 3.79851 29.7981 8.63298 24.5396 12.7768 19.9822L 17.6113 24.8901L 18.6472 24.189L 54.2151 60.2972C 54.9057 60.6478 58.0136 57.4927 57.6683 56.7916L 22.4457 20.6834Z"/>
<clipPath id="clip0">
<rect width="18.9926" height="6.31018" fill="white" transform="matrix(0 1 -1 0 -1419.03 -988.727)"/>
</clipPath>
<path id="path25" d="M 15.9586 8.17391C 15.9586 12.6882 12.3861 16.3478 7.9793 16.3478C 3.57245 16.3478 0 12.6882 0 8.17391C 0 3.65959 3.57245 0 7.9793 0C 12.3861 0 15.9586 3.65959 15.9586 8.17391Z"/>
<path id="path26" d="M 27.3333 14C 27.3333 21.732 21.2146 28 13.6667 28C 6.11878 28 1.61907e-07 21.732 1.61907e-07 14C 1.61907e-07 6.26801 6.11878 1.65856e-07 13.6667 1.65856e-07C 21.2146 1.65856e-07 27.3333 6.26801 27.3333 14Z"/>
<path id="path27" d="M 27.3333 14C 27.3333 21.732 21.2146 28 13.6667 28C 6.11878 28 1.61907e-07 21.732 1.61907e-07 14C 1.61907e-07 6.26801 6.11878 1.65856e-07 13.6667 1.65856e-07C 21.2146 1.65856e-07 27.3333 6.26801 27.3333 14Z"/>
<path id="path28" d="M 1.40062 2.86956C 2.17416 2.86956 2.80124 2.22719 2.80124 1.43478C 2.80124 0.642375 2.17416 0 1.40062 0C 0.627079 0 0 0.642375 0 1.43478C 0 2.22719 0.627079 2.86956 1.40062 2.86956Z"/>
<path id="path29" d="M 1.4178 2.83561C 2.20084 2.83561 2.83561 2.20084 2.83561 1.4178C 2.83561 0.634772 2.20084 0 1.4178 0C 0.634772 0 0 0.634772 0 1.4178C 0 2.20084 0.634772 2.83561 1.4178 2.83561Z"/>
<path id="path30" d="M 1.40062 2.86956C 2.17416 2.86956 2.80124 2.22719 2.80124 1.43478C 2.80124 0.642374 2.17416 0 1.40062 0C 0.627081 0 0 0.642374 0 1.43478C 0 2.22719 0.627081 2.86956 1.40062 2.86956Z"/>
<path id="path31" d="M 1.4178 2.83561C 2.20084 2.83561 2.83561 2.20084 2.83561 1.4178C 2.83561 0.634773 2.20084 0 1.4178 0C 0.634772 0 0 0.634773 0 1.4178C 0 2.20084 0.634772 2.83561 1.4178 2.83561Z"/>
<path id="path32" d="M 1.40062 2.86957C 2.17416 2.86957 2.80124 2.22719 2.80124 1.43478C 2.80124 0.642374 2.17416 0 1.40062 0C 0.627079 0 0 0.642374 0 1.43478C 0 2.22719 0.627079 2.86957 1.40062 2.86957Z"/>
<path id="path33" d="M 1.4178 2.83561C 2.20084 2.83561 2.83561 2.20084 2.83561 1.4178C 2.83561 0.634773 2.20084 0 1.4178 0C 0.634773 0 0 0.634773 0 1.4178C 0 2.20084 0.634773 2.83561 1.4178 2.83561Z"/>
<path id="path34" d="M 1.40062 2.86956C 2.17416 2.86956 2.80124 2.22719 2.80124 1.43478C 2.80124 0.642374 2.17416 0 1.40062 0C 0.627079 0 0 0.642374 0 1.43478C 0 2.22719 0.627079 2.86956 1.40062 2.86956Z"/>
<path id="path35" d="M 1.4178 2.83561C 2.20084 2.83561 2.83561 2.20084 2.83561 1.4178C 2.83561 0.634772 2.20084 0 1.4178 0C 0.634773 0 0 0.634772 0 1.4178C 0 2.20084 0.634773 2.83561 1.4178 2.83561Z"/>
<path id="path36" d="M 13.9352 6.8662C 13.9352 10.6583 10.8157 13.7324 6.96758 13.7324C 3.11949 13.7324 -3.54389e-07 10.6583 -3.54389e-07 6.8662C -3.54389e-07 3.0741 3.11949 0 6.96758 0C 10.8157 0 13.9352 3.0741 13.9352 6.8662Z"/>
<path id="path37" d="M -7.62939e-07 4.71479L -7.62939e-07 0"/>
<path id="path38" d="M 7.08779e-07 4.16549L 2.22962 -4.36541e-08"/>
<path id="path39" d="M 1.41756e-06 2.65493L 3.9483 0"/>
<path id="path40" d="M 1.41756e-06 0.549295L 4.73795 6.98466e-07"/>
<path id="path41" d="M 7.08779e-07 -6.98466e-07L 4.45925 1.69366"/>
<path id="path42" d="M 7.08779e-07 -1.39693e-06L 3.11218 3.57042"/>
<path id="path43" d="M -7.08779e-07 -6.98466e-07L 1.11481 4.57746"/>
<path id="path44" d="M 1.20771 1.39693e-06L -3.54389e-07 4.53169"/>
<path id="path45" d="M 3.25154 0L 0 3.4331"/>
<path id="path46" d="M 4.5057 -6.98466e-07L 2.21493e-08 1.55634"/>
<path id="path47" d="M 4.6915 0.640845L 2.76867e-09 -6.98466e-07"/>
<path id="path48" d="M 3.85539 2.74648L -8.85973e-08 -1.74616e-07"/>
<path id="path49" d="M 2.13672 4.21127L 3.54389e-07 0"/>

</defs>
</svg>

