<svg width="290" height="30" viewBox="0 0 290 30" version="1.1" xmlns="http://www.w3.org/2000/svg" xmlns:xlink="http://www.w3.org/1999/xlink">
<g data-name="Canvas" transform="translate(1866 3363)" fill="none">
<g data-name="opentext-magellan-wordmark">
<g data-name="Group">
<g data-name="Group">
<g data-name="Vector">
<g transform="translate(-1690.7 -3358.34)">
<use xlink:href="#path0" fill="white"/>
</g>
</g>
<g data-name="Vector">
<g transform="translate(-1669.49 -3353.56)">
<use xlink:href="#path1" fill="white"/>
</g>
</g>
<g data-name="Vector">
<g transform="translate(-1655.03 -3353.52)">
<use xlink:href="#path2" fill="white"/>
</g>
</g>
<g data-name="Vector">
<g transform="translate(-1639.47 -3353.52)">
<use xlink:href="#path3" fill="white"/>
</g>
</g>
<g data-name="Vector">
<g transform="translate(-1623.99 -3358.34)">
<use xlink:href="#path4" fill="white"/>
</g>
</g>
<g data-name="Vector">
<g transform="translate(-1618.38 -3358.34)">
<use xlink:href="#path5" fill="white"/>
</g>
</g>
<g data-name="Vector">
<g transform="translate(-1613.59 -3353.56)">
<use xlink:href="#path6" fill="white"/>
</g>
</g>
<g data-name="Vector">
<g transform="translate(-1598.6 -3353.52)">
<use xlink:href="#path7" fill="white"/>
</g>
</g>
<g data-name="Vector">
<g transform="translate(-1584.76 -3357.06)">
<use xlink:href="#path8" fill="white"/>
</g>
</g>
</g>
<g data-name="Group">
<g data-name="Vector">
<g transform="translate(-1866 -3358.44)">
<use xlink:href="#path9" fill="white"/>
</g>
</g>
<g data-name="Vector">
<g transform="translate(-1801.1 -3358.42)">
<use xlink:href="#path10" fill="white"/>
</g>
</g>
<g data-name="Vector">
<g transform="translate(-1822.96 -3358.46)">
<use xlink:href="#path11" fill="white"/>
</g>
</g>
<g data-name="Vector">
<g transform="translate(-1734.31 -3361.88)">
<use xlink:href="#path12" fill="white"/>
</g>
</g>
<g data-name="Vector">
<g transform="translate(-1781.32 -3361.88)">
<use xlink:href="#path13" fill="white"/>
</g>
</g>
<g data-name="Group">
<g data-name="Vector">
<g transform="translate(-1718.3 -3357.94)">
<use xlink:href="#path14" fill="white"/>
</g>
</g>
</g>
<g data-name="Vector">
<g transform="translate(-1771.04 -3358.42)">
<use xlink:href="#path15" fill="white"/>
</g>
</g>
<g data-name="Vector">
<g transform="translate(-1752.86 -3357.94)">
<use xlink:href="#path16" fill="white"/>
</g>
</g>
<g data-name="Vector">
<g transform="translate(-1843.36 -3358.42)">
<use xlink:href="#path17" fill="white"/>
</g>
</g>
</g>
<g data-name="Vector">
<g transform="translate(-1702.49 -3363)">
<use xlink:href="#path18" fill="white"/>
</g>
</g>
</g>
</g>
</g>
<defs>

<path id="path0" d="M 2.49932e-06 1.53202e-07L 3.07117 1.53202e-07L 9.25445 15.9439L 15.5606 1.53202e-07L 18.5089 1.53202e-07L 18.5089 18.8355L 16.2158 18.8355L 16.2158 3.97594L 10.1963 18.8355L 8.18978 18.8355L 2.25219 4.0161L 2.25219 18.8355L 2.49932e-06 18.8355L 2.49932e-06 1.53202e-07Z"/>
<path id="path1" d="M 9.58203 12.209C 9.09065 12.8114 8.43547 13.3335 7.65744 13.7351C 6.87942 14.1768 5.93759 14.3776 4.79102 14.3776C 4.09489 14.3776 3.4397 14.2973 2.86642 14.1367C 2.29314 13.976 1.76081 13.6949 1.35132 13.3736C 0.941829 13.0122 0.614228 12.6106 0.368535 12.0885C 0.122842 11.5664 -2.49932e-06 10.964 -2.49932e-06 10.2812C -2.49932e-06 9.35752 0.204742 8.59446 0.614231 8.03221C 1.02372 7.46995 1.55605 6.98802 2.21123 6.66673C 2.86642 6.34544 3.64445 6.10448 4.50438 5.94383C 5.3643 5.78319 6.22423 5.70287 7.1251 5.6627L 9.50014 5.58238L 9.50014 5.06029C 9.50014 3.89562 9.25444 3.05224 8.76306 2.57031C 8.27167 2.04821 7.45269 1.80725 6.30612 1.80725C 5.2005 1.80725 4.38153 1.96789 3.84919 2.32934C 3.31686 2.69079 2.98926 3.17272 2.82547 3.8153L 0.696134 3.57433C 0.941827 2.32934 1.55606 1.40564 2.49788 0.843382C 3.43971 0.281127 4.75007 0 6.38803 0C 7.41175 0 8.23073 0.120483 8.92686 0.361449C 9.62299 0.602415 10.1963 0.923704 10.6058 1.36547C 11.0152 1.80725 11.3428 2.3695 11.5476 3.01208C 11.7523 3.65465 11.8342 4.37755 11.8342 5.22093L 11.8342 14.0965L 9.58203 14.0965L 9.58203 12.209L 9.58203 12.209ZM 9.5411 7.22899L 7.28891 7.30931C 6.34708 7.34947 5.56905 7.42979 4.91386 7.59044C 4.29963 7.75108 3.80824 7.91172 3.4397 8.15269C 3.07116 8.39366 2.82547 8.67478 2.66168 9.03623C 2.49788 9.39768 2.41598 9.79929 2.41598 10.2411C 2.41598 10.9238 2.62072 11.4861 3.03021 11.8877C 3.4397 12.2893 4.13584 12.4901 5.11861 12.4901C 6.51087 12.4901 7.57554 12.1688 8.35357 11.4861C 9.1316 10.8033 9.50014 9.91977 9.50014 8.7551L 9.50014 7.22899L 9.5411 7.22899Z"/>
<path id="path2" d="M 2.82546 15.3014C 3.03021 16.1447 3.39877 16.707 3.97205 17.0684C 4.54534 17.4299 5.40526 17.5905 6.63373 17.5905C 8.10789 17.5905 9.13161 17.1889 9.7049 16.3857C 10.2782 15.5825 10.5648 14.4178 10.5648 12.8917L 10.5648 11.4459C 10.0325 12.1688 9.3773 12.7712 8.59927 13.1728C 7.82124 13.5744 6.96132 13.7752 5.93759 13.7752C 4.91387 13.7752 4.05393 13.6146 3.31685 13.2531C 2.57977 12.8917 1.96554 12.4098 1.47415 11.7672C 0.982768 11.1246 0.614223 10.4017 0.36853 9.59849C 0.122837 8.7551 4.99864e-06 7.87156 4.99864e-06 6.94786C 4.99864e-06 5.90367 0.122842 4.97997 0.450433 4.09642C 0.737075 3.25304 1.14656 2.53014 1.6789 1.88757C 2.21123 1.28515 2.86641 0.80322 3.64444 0.481932C 4.42247 0.160644 5.28242 1.53202e-07 6.22424 1.53202e-07C 7.00227 1.53202e-07 7.78029 0.160644 8.51737 0.481932C 9.2954 0.80322 9.99152 1.36548 10.6058 2.1687L 10.6058 0.441772L 12.8989 0.441772L 12.8989 11.8073C 12.8989 12.972 12.817 14.0564 12.6532 14.9801C 12.4894 15.9038 12.1618 16.707 11.7114 17.3897C 11.2609 18.0323 10.6058 18.5544 9.82774 18.9158C 9.04971 19.2773 7.98502 19.4379 6.71561 19.4379C 4.87291 19.4379 3.4397 19.1166 2.41597 18.4741C 1.39225 17.8315 0.778019 16.7873 0.573274 15.3014L 2.82546 15.3014L 2.82546 15.3014ZM 10.6058 6.70689C 10.6058 5.82335 10.4829 5.06029 10.2782 4.45787C 10.0734 3.85546 9.78677 3.37353 9.37728 2.97192C 9.00874 2.57031 8.55833 2.28918 8.06694 2.12853C 7.57555 1.96789 7.0432 1.88757 6.51086 1.88757C 5.93758 1.88757 5.40526 1.96789 4.91387 2.1687C 4.42248 2.3695 3.97204 2.65063 3.6035 3.05224C 3.23496 3.45385 2.94833 3.97594 2.74359 4.61852C 2.53884 5.26109 2.41597 6.02415 2.41597 6.9077C 2.41597 7.8314 2.53884 8.59446 2.74359 9.23704C 2.94833 9.87961 3.27591 10.3615 3.6035 10.7632C 3.97204 11.1648 4.38152 11.4459 4.87291 11.6065C 5.36429 11.7672 5.81473 11.8877 6.30612 11.8877C 6.92035 11.8877 7.49365 11.8073 7.98504 11.6065C 8.47642 11.4057 8.92686 11.1246 9.33635 10.723C 9.70489 10.3214 9.99153 9.83945 10.2372 9.2772C 10.442 8.67478 10.5648 7.99204 10.5648 7.18882L 10.5648 6.70689L 10.6058 6.70689Z"/>
<path id="path3" d="M 12.4894 10.2009C 12.2437 11.5262 11.6704 12.5704 10.6877 13.3335C 9.74583 14.0965 8.35358 14.458 6.55183 14.458C 4.42249 14.458 2.82547 13.8154 1.6789 12.5704C 0.532331 11.3254 4.99864e-06 9.55833 4.99864e-06 7.30931C 4.99864e-06 6.14464 0.163806 5.10045 0.491397 4.17675C 0.818988 3.25304 1.26942 2.48998 1.84271 1.88757C 2.41599 1.28515 3.11211 0.80322 3.93109 0.481932C 4.75007 0.160644 5.61 1.53202e-07 6.55183 1.53202e-07C 7.6165 1.53202e-07 8.55832 0.160644 9.33635 0.481932C 10.1144 0.80322 10.7286 1.28515 11.22 1.84741C 11.7114 2.44982 12.0799 3.13256 12.3256 3.93578C 12.5713 4.739 12.6942 5.62254 12.6942 6.58641L 12.6942 7.79124L 2.37504 7.79124C 2.37504 8.47398 2.45694 9.11655 2.66168 9.71897C 2.86643 10.3214 3.11212 10.8033 3.48066 11.2451C 3.8492 11.6869 4.25869 12.0081 4.79103 12.2491C 5.32337 12.4901 5.89664 12.6106 6.59277 12.6106C 7.73934 12.6106 8.59927 12.4098 9.1316 11.968C 9.66394 11.5262 10.0325 10.964 10.2372 10.2009L 12.4894 10.2009L 12.4894 10.2009ZM 10.3601 6.06432C 10.3601 5.42174 10.2782 4.81932 10.1553 4.29723C 9.99153 3.77514 9.78679 3.33337 9.50015 2.93176C 9.21351 2.53014 8.80401 2.24902 8.31262 2.04821C 7.82124 1.84741 7.24796 1.72692 6.55183 1.72692C 5.32336 1.72692 4.34057 2.08837 3.64444 2.85143C 2.94831 3.57433 2.53882 4.65868 2.41597 6.06432L 10.3601 6.06432Z"/>
<path id="path4" d="M 0 1.53202e-07L 2.33409 1.53202e-07L 2.33409 18.8355L 0 18.8355L 0 1.53202e-07Z"/>
<path id="path5" d="M 4.99864e-06 1.53202e-07L 2.3341 1.53202e-07L 2.3341 18.8355L 4.99864e-06 18.8355L 4.99864e-06 1.53202e-07Z"/>
<path id="path6" d="M 9.58203 12.209C 9.09065 12.8114 8.43546 13.3335 7.65743 13.7351C 6.8794 14.1367 5.93758 14.3776 4.79101 14.3776C 4.09488 14.3776 3.43972 14.2973 2.86643 14.1367C 2.29315 13.976 1.76081 13.6949 1.35132 13.3736C 0.941829 13.0122 0.614228 12.6106 0.368535 12.0885C 0.122842 11.5664 9.99729e-06 10.964 9.99729e-06 10.2812C 9.99729e-06 9.35752 0.204754 8.59446 0.614243 8.03221C 1.02373 7.46995 1.55605 6.98802 2.21123 6.66673C 2.86642 6.34544 3.64446 6.10448 4.50439 5.94383C 5.36431 5.78319 6.22423 5.70287 7.1251 5.6627L 9.50013 5.58238L 9.50013 5.06029C 9.50013 3.89562 9.25444 3.05224 8.76306 2.57031C 8.27167 2.04821 7.45269 1.80725 6.30612 1.80725C 5.2005 1.80725 4.38153 1.96789 3.84919 2.32934C 3.31686 2.69079 2.98926 3.17272 2.82547 3.8153L 0.696121 3.57433C 0.941814 2.32934 1.55606 1.40564 2.49788 0.843382C 3.43971 0.281127 4.75007 0 6.38803 0C 7.41175 0 8.23073 0.120483 8.92686 0.361449C 9.62299 0.602415 10.1963 0.923704 10.6058 1.36547C 11.0152 1.80725 11.3428 2.3695 11.5476 3.01208C 11.7523 3.65465 11.8342 4.37755 11.8342 5.22093L 11.8342 14.0965L 9.58203 14.0965L 9.58203 12.209L 9.58203 12.209ZM 9.50013 7.22899L 7.24794 7.30931C 6.30612 7.34947 5.5281 7.42979 4.87291 7.59044C 4.25868 7.75108 3.7673 7.91172 3.39876 8.15269C 3.03022 8.39366 2.78452 8.67478 2.62072 9.03623C 2.45693 9.39768 2.37504 9.79929 2.37504 10.2411C 2.37504 10.9238 2.57978 11.4861 2.98927 11.8877C 3.39876 12.2893 4.09488 12.4901 5.07766 12.4901C 6.46992 12.4901 7.5346 12.1688 8.31263 11.4861C 9.09066 10.8033 9.45919 9.91977 9.45919 8.7551L 9.45919 7.22899L 9.50013 7.22899Z"/>
<path id="path7" d="M 0.0409389 0.40161L 2.33409 0.40161L 2.33409 2.48998C 3.03022 1.60644 3.7673 0.963865 4.58628 0.562254C 5.40526 0.160644 6.26517 1.53202e-07 7.20699 1.53202e-07C 8.804 1.53202e-07 9.95058 0.441771 10.7286 1.28515C 11.5066 2.12853 11.8752 3.37353 11.8752 5.02013L 11.8752 14.0965L 9.54109 14.0965L 9.54109 5.42174C 9.54109 4.13659 9.29539 3.25304 8.84495 2.73095C 8.39451 2.20886 7.65744 1.96789 6.67466 1.96789C 6.14233 1.96789 5.65095 2.04821 5.11861 2.24902C 4.62722 2.40966 4.13583 2.69079 3.72634 3.0924C 3.2759 3.49401 2.94831 3.89562 2.70262 4.33739C 2.45692 4.77916 2.33409 5.34142 2.33409 6.02415L 2.33409 14.0965L 0 14.0965L 0 0.40161L 0.0409389 0.40161Z"/>
<path id="path8" d="M 1.43321 0.642576L -4.99864e-06 0.642576L -4.99864e-06 7.66011e-08L 3.56255 7.66011e-08L 3.56255 0.642576L 2.12934 0.642576L 2.12934 4.21691L 1.39227 4.21691L 1.39227 0.642576L 1.43321 0.642576ZM 4.17679 0.0401609L 5.07767 0.0401609L 6.46991 3.41369L 7.86219 0.0401609L 8.76307 0.0401609L 8.76307 4.25707L 8.10787 4.25707L 8.10787 1.08435L 6.75656 4.25707L 6.14233 4.25707L 4.83196 1.08435L 4.83196 4.25707L 4.17679 4.25707L 4.17679 0.0401609Z"/>
<path id="path9" d="M 20.5563 9.81998C 20.5563 14.559 17.7718 19.6996 10.2782 19.6996C 4.91387 19.6996 0 16.7277 0 9.81998C 0 4.07696 3.6854 -0.340756 11.0153 0.0206929C 18.8365 0.462464 20.5563 6.4063 20.5563 9.81998ZM 6.63372 6.20549C 5.93759 7.24968 5.6919 8.53483 5.6919 9.77982C 5.6919 12.6714 7.16606 15.322 10.3191 15.322C 13.3493 15.322 14.8644 12.9124 14.8644 10.0208C 14.8644 7.97258 14.3321 6.4063 13.3084 5.44243C 12.1209 4.39825 10.8105 4.35808 9.99153 4.43841C 8.35357 4.51873 7.41175 5.04082 6.63372 6.20549Z"/>
<path id="path10" d="M 5.69189 2.12853C 6.22423 1.56628 6.59277 1.12451 7.6165 0.642577C 8.47642 0.281127 9.74584 -1.53202e-07 11.0972 -1.53202e-07C 12.2437 -1.53202e-07 13.5131 0.160644 14.4959 0.722899C 16.5024 1.76709 17.0347 3.45385 17.0347 6.3856L 17.0347 19.2371L 11.4247 19.2371L 11.4247 8.63462C 11.4247 6.94786 11.3838 6.34544 11.179 5.82335C 10.7286 4.81932 9.74584 4.37755 8.64022 4.37755C 5.65095 4.37755 5.65095 6.70689 5.65095 9.03623L 5.65095 19.1568L 0 19.1568L 0 0.481933L 5.69189 0.481933L 5.69189 2.12853Z"/>
<path id="path11" d="M 19.205 14.3785C 18.6727 15.4629 17.0347 19.6798 9.66393 19.6798C 3.97204 19.6798 -6.2483e-07 16.2661 -6.2483e-07 10.1215C -6.2483e-07 5.58327 2.29314 0.000885259 9.82773 0.000885259C 10.9743 0.000885259 14.2502 -0.119598 16.7071 2.45071C 19.205 5.06117 19.3279 8.75599 19.4098 10.8444L 5.73284 10.8444C 5.69189 13.1737 7.04321 15.503 10.1144 15.503C 13.1855 15.503 14.2502 13.5352 14.9463 12.2098L 19.205 14.3785ZM 13.595 7.47084C 13.4722 6.66762 13.3493 5.62343 12.5304 4.82021C 11.8342 4.13747 10.7696 3.77602 9.78678 3.77602C 8.43547 3.77602 7.49365 4.4186 6.92036 4.98085C 6.14233 5.82423 5.97854 6.66762 5.77379 7.47084L 13.595 7.47084L 13.595 7.47084Z"/>
<path id="path12" d="M 9.04971 7.8314L 12.776 7.8314L 12.776 3.93578L 9.09065 3.93578L 9.09065 -1.91503e-08L 3.48066 -1.91503e-08L 3.48066 3.93578L 2.57978 3.93578L 2.49932e-06 7.8314L 3.43971 7.8314L 3.43971 16.7472C 3.43971 18.5544 3.48066 19.8797 4.25868 21.0042C 5.48715 22.7311 7.57554 22.8516 9.54109 22.8516C 10.5648 22.8516 11.3019 22.7311 12.5304 22.5705L 12.5304 18.1929L 10.5239 18.2733C 9.00875 18.2733 9.00876 17.3094 9.04971 16.1447L 9.04971 7.8314Z"/>
<path id="path13" d="M 0.0818978 -1.91503e-08L 5.69189 -1.91503e-08L 5.69189 3.93578L 11.5066 3.93578L 8.92686 7.8314L 5.61 7.8314L 5.61 16.1447C 5.56905 17.3094 5.56905 18.2733 7.08416 18.2733L 9.09065 18.1929L 9.09065 22.4902C 7.86219 22.6508 7.16605 22.7713 6.10138 22.7713C 4.17679 22.7713 2.04745 22.6508 0.818979 20.9239C 0.0409502 19.7994 1.24966e-06 18.4741 1.24966e-06 16.6668L 1.24966e-06 -1.91503e-08L 0.0818978 -1.91503e-08Z"/>
<path id="path14" d="M 1.96555 3.89562L 1.26941 3.89562L 1.26941 0.562254L 4.99864e-06 0.562254L 4.99864e-06 1.53202e-07L 3.23496 1.53202e-07L 3.23496 0.562254L 1.96555 0.562254L 1.96555 3.89562L 1.96555 3.89562ZM 7.41174 3.89562L 6.71562 3.89562L 6.75657 1.48596L 6.79751 0.682738L 6.59277 1.32531L 5.77379 3.85546L 5.15955 3.85546L 4.34058 1.32531L 4.13583 0.682738L 4.17678 1.48596L 4.21774 3.89562L 3.56255 3.89562L 3.56255 1.53202e-07L 4.50438 1.53202e-07L 5.48715 3.05224L 6.46992 1.53202e-07L 7.41174 1.53202e-07L 7.41174 3.89562L 7.41174 3.89562Z"/>
<path id="path15" d="M 18.8774 14.3785L 17.8128 16.0251C 16.789 17.4709 14.9054 19.6798 9.50014 19.6798C 3.80825 19.6798 -2.49932e-06 16.2661 -2.49932e-06 10.1215C -2.49932e-06 5.58327 2.29314 0.000885029 9.82773 0.000885029C 10.9743 0.000885029 14.2502 -0.119598 16.7071 2.45071C 19.205 5.06117 19.3279 8.75599 19.4098 10.8444L 5.77379 10.8444C 5.73284 13.1737 6.92037 15.503 9.95058 15.503C 13.0217 15.503 13.9226 13.5352 14.6188 12.2098L 18.8774 14.3785ZM 13.595 7.43068C 13.4722 6.62745 13.3493 5.58327 12.5304 4.78005C 11.8342 4.09731 10.7696 3.73586 9.78678 3.73586C 8.43547 3.73586 7.49365 4.37844 6.92036 4.94069C 6.14233 5.78407 5.97854 6.62745 5.77379 7.43068L 13.595 7.43068L 13.595 7.43068Z"/>
<path id="path16" d="M 19.9421 18.715L 12.8989 8.87559L 18.7546 1.53202e-07L 12.3666 1.53202e-07L 9.58204 4.17675L 6.59277 1.53202e-07L 0.204739 1.53202e-07L 6.51088 8.87559L -4.99864e-06 18.715L 6.42898 18.715L 9.82773 13.5343L 13.5131 18.715L 19.9421 18.715Z"/>
<path id="path17" d="M 5.69189 2.12853C 6.22423 1.32531 7.94408 -1.53202e-07 10.7286 -1.53202e-07C 15.4377 -1.53202e-07 18.7136 3.49401 18.7136 9.75913C 18.7136 13.6146 17.2804 19.6789 10.4829 19.6789C 8.02598 19.6789 6.14233 18.3536 5.65095 17.5504L 5.65095 25.4219L -3.12415e-07 25.4219L -3.12415e-07 0.481933L 5.69189 0.481933L 5.69189 2.12853ZM 9.50014 4.33739C 8.47642 4.33739 7.41175 4.739 6.59277 5.74303C 5.77379 6.70689 5.40525 8.23301 5.40525 9.83945C 5.40525 12.0483 6.06044 13.3736 6.75657 14.1367C 7.41175 14.8596 8.35357 15.2612 9.2954 15.2612C 12.039 15.2612 13.2674 12.4098 13.2674 9.67881C 13.2674 7.38963 12.5713 4.93981 10.2782 4.37755C 9.99153 4.37755 9.74583 4.33739 9.50014 4.33739Z"/>
<path id="path18" d="M 1.02372 0L -4.99864e-06 0L -4.99864e-06 29.2372L 1.02372 29.2372L 1.02372 0Z"/>

</defs>
</svg>

